Coordinates
version=1
nRows=10
nColumns=63
inDegrees=yes

Units are S.I. units (second, meters, Newtons, ...)
If the header above contains a line with 'inDegrees', this indicates whether rotational values are in degrees (yes) or radians (no).

endheader
time	pelvis_tilt	pelvis_list	pelvis_rotation	pelvis_tx	pelvis_ty	pelvis_tz	hip_flexion_r	hip_adduction_r	hip_rotation_r	knee_angle_r	knee_angle_r_beta	ankle_angle_r	subtalar_angle_r	mtp_angle_r	hip_flexion_l	hip_adduction_l	hip_rotation_l	knee_angle_l	knee_angle_l_beta	ankle_angle_l	subtalar_angle_l	mtp_angle_l	L5_S1_Flex_Ext	L5_S1_Lat_Bending	L5_S1_axial_rotation	L4_L5_Flex_Ext	L4_L5_Lat_Bending	L4_L5_axial_rotation	L3_L4_Flex_Ext	L3_L4_Lat_Bending	L3_L4_axial_rotation	L2_L3_Flex_Ext	L2_L3_Lat_Bending	L2_L3_axial_rotation	L1_L2_Flex_Ext	L1_L2_Lat_Bending	L1_L2_axial_rotation	L1_T12_Flex_Ext	L1_T12_Lat_Bending	L1_T12_axial_rotation	Abs_r3	Abs_r2	Abs_r1	Abs_t1	Abs_t2	neck_flexion	neck_bending	neck_rotation	arm_flex_r	arm_add_r	arm_rot_r	elbow_flex_r	pro_sup_r	wrist_flex_r	wrist_dev_r	arm_flex_l	arm_add_l	arm_rot_l	elbow_flex_l	pro_sup_l	wrist_flex_l	wrist_dev_l
      0.89830508	     -0.85856646	     -1.30658099	     87.49101562	      0.20598006	      0.66564735	      0.95471723	      7.12697205	     -2.00787727	     -0.15058089	      8.29116425	      0.14470812	     19.57910638	     10.78131338	      0.00000000	      4.68560262	     -0.43608439	      1.75751148	      2.61805232	      0.04569363	     19.80782125	     -8.42262515	      0.00000000	      0.05857558	     -0.06011771	      1.06047846	      0.10878071	     -0.07995655	      1.12675837	      0.09623383	     -0.14617019	      1.12675837	      0.06694603	     -0.14617019	      0.92791866	      0.05439329	     -0.12259203	      0.86163875	      0.03347009	     -0.09312233	      0.79535885	      0.41839953	     -0.68006351	      5.89806307	      0.00000000	      0.00000000	     27.21743430	     -0.28897950	     -8.43977396	     -4.12003294	    -17.51215417	     39.56364442	     24.74045638	     66.96053068	     -5.66762627	     -8.94154811	      1.55983018	    -22.34010612	     47.04146523	     32.53859504	     84.76292679	    -21.50619122	    -13.93435280
      0.91525424	     -0.83792186	     -1.52646157	     87.93527727	      0.20537516	      0.66536276	      0.95502751	      7.26638857	     -1.99684519	      0.08046030	      8.11784827	      0.14168318	     19.71867031	     10.24395806	      0.00000000	      5.07157714	     -0.47516046	      0.28654865	      2.81472614	      0.04912624	     20.46844390	     -5.66805980	      0.00000000	      0.06662679	     -0.05746513	      0.97337676	      0.12373260	     -0.07642862	      1.03421280	      0.10946115	     -0.13972071	      1.03421280	      0.07614775	     -0.13972071	      0.85170466	      0.06186963	     -0.11718289	      0.79086861	      0.03807055	     -0.08901348	      0.73003257	      0.47590847	     -0.65005701	      5.41362951	      0.00000000	      0.00000000	     27.43734505	     -0.32311946	     -8.29982754	     -3.97246183	    -17.56196231	     40.73236190	     24.25781049	     65.20709728	     -5.69807443	     -8.22977770	      2.35890484	    -22.19628521	     48.93192792	     31.43221932	     83.84979818	    -21.44921961	    -13.46200185
      0.93220339	     -0.73746923	     -1.80626078	     88.55340852	      0.20439825	      0.66502760	      0.95541083	      7.40227115	     -1.98348580	     -0.45682446	      7.84900310	      0.13699095	     19.82031316	     10.54553632	      0.00000000	      5.50186876	     -0.46759397	      2.71256562	      2.91810869	      0.05093060	     19.78057201	     -8.47566574	      0.00000000	      0.09250387	     -0.05151658	      0.81324850	      0.17178894	     -0.06851705	      0.86407653	      0.15197461	     -0.12525741	      0.86407653	      0.10572267	     -0.12525741	      0.71159244	      0.08589909	     -0.10505261	      0.66076441	      0.05285671	     -0.07979918	      0.60993638	      0.66074589	     -0.58276583	      4.52304419	      0.00000000	      0.00000000	     27.53141554	     -0.01471041	     -8.34739444	     -2.80278984	    -18.04320264	     48.33255289	     23.33886190	     56.91609782	     -6.27077544	     -8.98873404	      2.84560423	    -22.03156925	     49.90935813	     30.61802063	     84.47554094	    -21.16145545	    -11.71796039
      0.94915254	     -0.64959758	     -2.11622106	     88.97106703	      0.20365143	      0.66456666	      0.95588380	      7.66373095	     -1.92944021	     -0.45221754	      7.73401281	      0.13498399	     19.81155503	     10.15879507	      0.00000000	      5.98670712	     -0.53103633	      2.13793162	      3.10015255	      0.05410787	     20.14043241	     -7.16007354	      0.00000000	      0.11977040	     -0.04160672	      0.73362486	      0.22242562	     -0.05533694	      0.77947641	      0.19677080	     -0.10116258	      0.77947641	      0.13688560	     -0.10116258	      0.64192175	      0.11121880	     -0.08484443	      0.59607020	      0.06843681	     -0.06444881	      0.55021864	      0.85550802	     -0.47066355	      4.08020138	      0.00000000	      0.00000000	     27.63745048	      0.26309430	     -8.25748302	     -2.66375783	    -18.02853254	     49.08562675	     22.96088391	     56.03218463	     -6.13643548	     -8.55279347	      3.86111086	    -21.85926702	     52.35562037	     29.59376937	     84.55859947	    -20.30201842	     -9.84095906
      0.96610169	     -0.56874221	     -2.44120120	     89.36485493	      0.20284465	      0.66405167	      0.95641573	      7.98828437	     -1.88902949	     -0.45406501	      7.71986995	      0.13473715	     19.73031603	      9.66464151	      0.00000000	      6.50168314	     -0.58426004	      1.69855530	      3.29829645	      0.05756613	     20.48769697	     -5.96853506	      0.00000000	      0.14700912	     -0.02842200	      0.64314356	      0.27301064	     -0.03780126	      0.68334003	      0.24152129	     -0.06910524	      0.68334003	      0.16801673	     -0.06910524	      0.56275061	      0.13651267	     -0.05795814	      0.52255414	      0.08400101	     -0.04402567	      0.48235767	      1.05007146	     -0.32151531	      3.57697153	      0.00000000	      0.00000000	     27.77199981	      0.83764407	     -7.65379438	     -2.51969798	    -18.03912693	     49.59235517	     22.68099106	     55.65861012	     -6.12227280	     -8.58939085	      4.97112641	    -21.62152638	     54.90366307	     28.48002938	     85.08740299	    -18.74741525	     -8.06511456
      0.98305085	     -0.47680675	     -2.75931378	     89.75851188	      0.20204567	      0.66353153	      0.95692578	      8.34540928	     -1.89066612	     -1.30484688	      7.79669909	      0.13607807	     19.75702717	     10.21039102	      0.00000000	      6.92070493	     -0.56765915	      3.59600748	      3.30585127	      0.05769799	     19.95674925	     -8.25597473	      0.00000000	      0.17238238	     -0.01471432	      0.54511486	      0.32013132	     -0.01957005	      0.57918454	      0.28320702	     -0.03577641	      0.57918454	      0.19701583	     -0.03577641	      0.47697551	      0.16007428	     -0.03000545	      0.44290583	      0.09849929	     -0.02279249	      0.40883615	      1.23131012	     -0.16645137	      3.03176533	      0.00000000	      0.00000000	     27.87592310	      1.39744447	     -7.06134925	     -2.20824625	    -18.06571608	     51.33760829	     22.36945536	     53.60409249	     -6.47899635	     -9.44177827	      6.04917991	    -21.41949205	     57.32533397	     27.64460167	     86.26572093	    -17.41218528	     -6.02118123
      1.00000000	     -0.41285170	     -3.05038657	     89.85532206	      0.20165126	      0.66304255	      0.95766321	      8.77223351	     -1.83049901	     -1.04544567	      7.97710711	      0.13922678	     19.69519365	      9.59708167	      0.00000000	      7.37648063	     -0.63626287	      2.65870334	      3.48489526	      0.06082290	     20.41047245	     -6.78725533	      0.00000000	      0.19144088	     -0.00031641	      0.50430636	      0.35552486	     -0.00042082	      0.53582551	      0.31451822	     -0.00076932	      0.53582551	      0.21879778	     -0.00076932	      0.44126806	      0.17777200	     -0.00064522	      0.40974892	      0.10938932	     -0.00049012	      0.37822977	      1.36744307	     -0.00357928	      2.80480068	      0.00000000	      0.00000000	     27.95764998	      2.01975314	     -6.20200903	     -2.17733625	    -18.03995294	     51.17374045	     22.30793390	     53.84262633	     -6.87994044	    -10.36789541	      7.32087758	    -21.15680609	     60.27085216	     26.68050654	     86.91582113	    -15.80041802	     -4.59303560
      1.01694915	     -0.35762809	     -3.29583583	     89.82623196	      0.20148994	      0.66253846	      0.95857907	      9.22890482	     -1.76592659	     -0.74790157	      8.26161398	      0.14419237	     19.70565234	      9.13255600	      0.00000000	      7.71626259	     -0.71128352	      1.86062034	      3.54454163	      0.06186392	     20.69934370	     -5.66231100	      0.00000000	      0.20243209	      0.01255221	      0.48240424	      0.37593663	      0.01669444	      0.51255451	      0.33257568	      0.03051945	      0.51255451	      0.23135963	      0.03051945	      0.42210371	      0.18797844	      0.02559647	      0.39195345	      0.11566970	      0.01944338	      0.36180318	      1.44595217	      0.14199316	      2.68298768	      0.00000000	      0.00000000	     28.01765749	      2.53047013	     -5.38266727	     -2.18199502	    -18.04106160	     50.87086246	     22.38171054	     54.20879384	     -7.38645738	    -11.46820287	      8.39104406	    -20.91419992	     62.36703088	     25.98046345	     87.20320514	    -14.06000961	     -3.44229056
      1.03389831	     -0.28647292	     -3.49337928	     89.92437524	      0.20137337	      0.66209946	      0.95969831	      9.61147302	     -1.69235622	     -0.61151861	      8.50062930	      0.14836397	     19.70259071	      8.71852816	      0.00000000	      8.12136305	     -0.81136957	      0.97375140	      3.82460209	      0.06675190	     21.05774109	     -4.23963958	      0.00000000	      0.20750058	      0.02284408	      0.44969689	      0.38534932	      0.03038262	      0.47780295	      0.34090270	      0.05554309	      0.47780295	      0.23715241	      0.05554309	      0.39348478	      0.19268504	      0.04658364	      0.36537872	      0.11856583	      0.03538548	      0.33727267	      1.48215588	      0.25841678	      2.50107920	      0.00000000	      0.00000000	     28.05102139	      2.94755775	     -4.75518745	     -2.27748726	    -17.98014020	     50.23212168	     22.48099485	     54.68537505	     -7.88851070	    -12.52720533	      9.41661436	    -20.72166718	     63.99022583	     25.43399118	     87.03295515	    -11.91807270	     -2.44474723
      1.05084746	     -0.22370775	     -3.70225107	     90.12440557	      0.20113117	      0.66155873	      0.96082691	     10.01208413	     -1.72538017	     -1.53305630	      8.78034564	      0.15324594	     19.91184067	      9.68096391	      0.00000000	      8.49685680	     -0.75930652	      3.32484453	      4.01597493	      0.07009199	     20.21162285	     -7.57842950	      0.00000000	      0.21673985	      0.02786100	      0.40212847	      0.40250757	      0.03705513	      0.42726150	      0.35608190	      0.06774124	      0.42726150	      0.24771197	      0.06774124	      0.35186241	      0.20126462	      0.05681416	      0.32672938	      0.12384515	      0.04315669	      0.30159635	      1.54815107	      0.31516924	      2.23651792	      0.00000000	      0.00000000	     28.07281214	      3.10060523	     -4.66108763	     -3.04215954	    -17.73438059	     45.55073823	     23.12775484	     58.98970186	     -7.95906845	    -12.26445924	      9.80861744	    -20.61196704	     62.56844922	     25.46354332	     87.28399198	     -8.84375205	     -0.95157215
